<svg width="45" height="39" viewBox="0 0 45 39" fill="none" xmlns="http://www.w3.org/2000/svg">
<path d="M44.4631 16.9972C44.2981 16.4492 43.8518 16.0204 43.2814 15.8619C42.9615 15.7729 35.3832 13.7466 29.7386 19.17C26.8893 21.9083 26.3939 26.0227 28.3236 29.0183L24.496 32.696V19.7147C28.0653 18.9078 30.7425 15.6601 30.7425 11.7875C30.7425 4.11686 23.8925 0.400441 23.6007 0.246145C23.0807 -0.0293139 22.4497 -0.0293139 21.9297 0.246145C21.6379 0.400441 14.7879 4.11686 14.7879 11.7875C14.7879 15.6601 17.4651 18.9078 21.0343 19.7147V32.696L17.2099 29.0212C19.0834 26.1289 18.7351 21.9983 15.7914 19.17C10.1472 13.7466 2.56885 15.7732 2.24899 15.8619C1.67858 16.0204 1.2326 16.4492 1.06726 16.9972C0.974948 17.3048 -1.13425 24.5869 4.51001 30.0103C7.40332 32.7902 11.6849 33.1982 14.7588 31.3701L21.5307 37.8768C22.2127 38.5447 23.3251 38.5379 24.0004 37.8765L30.7695 31.372C33.7974 33.183 38.0899 32.826 41.0204 30.0103C46.6646 24.5866 44.5554 17.3045 44.4631 16.9972ZM14.6334 26.545L12.5184 24.5128C11.8425 23.8635 10.7467 23.8635 10.0704 24.5128C9.39451 25.1625 9.39451 26.2156 10.0704 26.865L12.1847 28.8965C10.4981 29.4951 8.42411 29.067 6.95767 27.6582C4.51001 25.3061 3.72117 22.074 4.20097 18.8731C7.51118 18.4147 10.8792 19.1541 13.3438 21.5221C14.8548 22.9741 15.2393 24.9731 14.6334 26.545ZM22.7652 11.6783C21.8093 11.6783 21.0343 12.4232 21.0343 13.3415V16.2146C19.4012 15.4922 18.2496 13.78 18.2496 11.7875C18.2496 8.45794 20.0748 5.63481 22.7682 3.69945C24.2746 4.77822 27.2808 7.47272 27.2808 11.7875C27.2808 13.78 26.1295 15.4922 24.496 16.2146V13.3415C24.496 12.4232 23.7211 11.6783 22.7652 11.6783ZM38.5724 27.6582C37.0613 29.1102 34.9809 29.4795 33.345 28.8971L35.46 26.8653C36.1355 26.2156 36.1355 25.1625 35.46 24.5132C34.7841 23.8638 33.6882 23.8638 33.012 24.5132L30.898 26.5443C30.2745 24.9238 30.7202 22.9312 32.1866 21.5221C34.6549 19.1505 38.0409 18.417 41.3331 18.8737C41.6043 20.6597 41.7473 24.6074 38.5724 27.6582Z" fill="white"/>
</svg>
